<svg width="82" height="34.121" version="1.1" viewBox="0 0 82 34.121" xmlns="http://www.w3.org/2000/svg"><style>.st0{fill-rule:evenodd;clip-rule:evenodd;fill:#635bff}</style><path class="st0" d="m82 17.63c0-5.8311-2.8244-10.432-8.2228-10.432-5.4211 0-8.7011 4.6011-8.7011 10.387 0 6.8561 3.8722 10.318 9.43 10.318 2.7106 0 4.7606-0.615 6.3094-1.4806v-4.5556c-1.5489 0.77444-3.3256 1.2528-5.5806 1.2528-2.2094 0-4.1683-0.77444-4.4189-3.4622h11.138c0-0.29611 0.04555-1.4806 0.04555-2.0272zm-11.252-2.1639c0-2.5739 1.5717-3.6444 3.0067-3.6444 1.3894 0 2.87 1.0706 2.87 3.6444zm-14.464-8.2683c-2.2322 0-3.6672 1.0478-4.4644 1.7767l-0.29611-1.4122h-5.0111v26.559l5.6944-1.2072 0.02277-6.4461c0.82 0.59222 2.0272 1.435 4.0317 1.435 4.0772 0 7.79-3.28 7.79-10.501-0.022771-6.6056-3.7811-10.204-7.7672-10.204zm-1.3667 15.694c-1.3439 0-2.1411-0.47833-2.6878-1.0706l-0.02278-8.4506c0.59222-0.66056 1.4122-1.1161 2.7106-1.1161 2.0728 0 3.5078 2.3233 3.5078 5.3072 0 3.0522-1.4122 5.33-3.5078 5.33zm-16.241-17.038 5.7172-1.23v-4.6239l-5.7172 1.2072zm0 1.7311h5.7172v19.931h-5.7172zm-6.1272 1.6856-0.36444-1.6856h-4.92v19.931h5.6944v-13.507c1.3439-1.7539 3.6217-1.435 4.3278-1.1844v-5.2389c-0.72889-0.27333-3.3939-0.77444-4.7378 1.6856zm-11.389-6.6283-5.5578 1.1844-0.022777 18.245c0 3.3711 2.5283 5.8539 5.8994 5.8539 1.8678 0 3.2344-0.34167 3.9861-0.75167v-4.6239c-0.72889 0.29611-4.3278 1.3439-4.3278-2.0272v-8.0861h4.3278v-4.8517h-4.3278zm-15.398 10.728c0-0.88833 0.72889-1.23 1.9361-1.23 1.7311 0 3.9178 0.52389 5.6489 1.4578v-5.3528c-1.8906-0.75167-3.7583-1.0478-5.6489-1.0478-4.6239 0-7.6989 2.4144-7.6989 6.4461 0 6.2867 8.6556 5.2844 8.6556 7.995 0 1.0478-0.91111 1.3894-2.1867 1.3894-1.8906 0-4.305-0.77444-6.2183-1.8222v5.4211c2.1183 0.91111 4.2594 1.2983 6.2183 1.2983 4.7378 0 7.995-2.3461 7.995-6.4233-0.02278-6.7878-8.7011-5.5806-8.7011-8.1317z" stroke-width=".22778"/></svg>
